<mxfile host="65bd71144e">
    <diagram name="Use Case diagram" id="KPauLVOOBLAdBETsw_Ia">
        <mxGraphModel dx="467" dy="300" grid="1" gridSize="10" guides="1" tooltips="1" connect="1" arrows="1" fold="1" page="1" pageScale="1" pageWidth="850" pageHeight="1100" math="0" shadow="0">
            <root>
                <mxCell id="0"/>
                <mxCell id="1" parent="0"/>
                <mxCell id="OjxvisMtF8FCTCC9srCc-3" value="" style="rounded=1;whiteSpace=wrap;html=1;" parent="1" vertex="1">
                    <mxGeometry x="190" y="140" width="440" height="570" as="geometry"/>
                </mxCell>
                <mxCell id="OjxvisMtF8FCTCC9srCc-5" value="Login" style="ellipse;whiteSpace=wrap;html=1;" parent="1" vertex="1">
                    <mxGeometry x="340" y="150" width="120" height="70" as="geometry"/>
                </mxCell>
                <mxCell id="OjxvisMtF8FCTCC9srCc-7" value="Register" style="ellipse;whiteSpace=wrap;html=1;" parent="1" vertex="1">
                    <mxGeometry x="220" y="270" width="120" height="80" as="geometry"/>
                </mxCell>
                <mxCell id="OjxvisMtF8FCTCC9srCc-8" value="Update" style="ellipse;whiteSpace=wrap;html=1;" parent="1" vertex="1">
                    <mxGeometry x="220" y="360" width="120" height="80" as="geometry"/>
                </mxCell>
                <mxCell id="OjxvisMtF8FCTCC9srCc-9" value="Download&lt;br&gt;ics file" style="ellipse;whiteSpace=wrap;html=1;" parent="1" vertex="1">
                    <mxGeometry x="220" y="470" width="120" height="80" as="geometry"/>
                </mxCell>
                <mxCell id="OjxvisMtF8FCTCC9srCc-10" value="View Profile" style="ellipse;whiteSpace=wrap;html=1;" parent="1" vertex="1">
                    <mxGeometry x="230" y="590" width="120" height="80" as="geometry"/>
                </mxCell>
                <mxCell id="OjxvisMtF8FCTCC9srCc-20" value="Create&amp;nbsp;" style="ellipse;whiteSpace=wrap;html=1;" parent="1" vertex="1">
                    <mxGeometry x="460" y="270" width="120" height="80" as="geometry"/>
                </mxCell>
                <mxCell id="OjxvisMtF8FCTCC9srCc-21" value="Download analysis" style="ellipse;whiteSpace=wrap;html=1;" parent="1" vertex="1">
                    <mxGeometry x="460" y="360" width="120" height="80" as="geometry"/>
                </mxCell>
                <mxCell id="OjxvisMtF8FCTCC9srCc-41" style="edgeStyle=orthogonalEdgeStyle;rounded=0;orthogonalLoop=1;jettySize=auto;html=1;exitX=1;exitY=0.3333333333333333;exitDx=0;exitDy=0;exitPerimeter=0;" parent="1" source="OjxvisMtF8FCTCC9srCc-36" target="OjxvisMtF8FCTCC9srCc-8" edge="1">
                    <mxGeometry relative="1" as="geometry"/>
                </mxCell>
                <mxCell id="OjxvisMtF8FCTCC9srCc-48" style="edgeStyle=orthogonalEdgeStyle;rounded=0;orthogonalLoop=1;jettySize=auto;html=1;exitX=1;exitY=0.3333333333333333;exitDx=0;exitDy=0;exitPerimeter=0;entryX=0;entryY=0.5;entryDx=0;entryDy=0;" parent="1" source="OjxvisMtF8FCTCC9srCc-36" target="OjxvisMtF8FCTCC9srCc-10" edge="1">
                    <mxGeometry relative="1" as="geometry"/>
                </mxCell>
                <mxCell id="OjxvisMtF8FCTCC9srCc-49" style="edgeStyle=orthogonalEdgeStyle;rounded=0;orthogonalLoop=1;jettySize=auto;html=1;exitX=1;exitY=0.3333333333333333;exitDx=0;exitDy=0;exitPerimeter=0;entryX=0;entryY=0.5;entryDx=0;entryDy=0;" parent="1" source="OjxvisMtF8FCTCC9srCc-36" target="OjxvisMtF8FCTCC9srCc-7" edge="1">
                    <mxGeometry relative="1" as="geometry"/>
                </mxCell>
                <mxCell id="OjxvisMtF8FCTCC9srCc-36" value="Actor" style="shape=umlActor;verticalLabelPosition=bottom;verticalAlign=top;html=1;outlineConnect=0;" parent="1" vertex="1">
                    <mxGeometry x="20" y="380" width="30" height="60" as="geometry"/>
                </mxCell>
                <mxCell id="OjxvisMtF8FCTCC9srCc-46" style="edgeStyle=orthogonalEdgeStyle;rounded=0;orthogonalLoop=1;jettySize=auto;html=1;exitX=0;exitY=0.3333333333333333;exitDx=0;exitDy=0;exitPerimeter=0;entryX=1;entryY=0.5;entryDx=0;entryDy=0;" parent="1" source="OjxvisMtF8FCTCC9srCc-37" target="OjxvisMtF8FCTCC9srCc-20" edge="1">
                    <mxGeometry relative="1" as="geometry"/>
                </mxCell>
                <mxCell id="OjxvisMtF8FCTCC9srCc-47" style="edgeStyle=orthogonalEdgeStyle;rounded=0;orthogonalLoop=1;jettySize=auto;html=1;exitX=0;exitY=0.3333333333333333;exitDx=0;exitDy=0;exitPerimeter=0;entryX=1;entryY=0.5;entryDx=0;entryDy=0;" parent="1" source="OjxvisMtF8FCTCC9srCc-37" target="OjxvisMtF8FCTCC9srCc-21" edge="1">
                    <mxGeometry relative="1" as="geometry"/>
                </mxCell>
                <mxCell id="OjxvisMtF8FCTCC9srCc-37" value="Actor" style="shape=umlActor;verticalLabelPosition=bottom;verticalAlign=top;html=1;outlineConnect=0;" parent="1" vertex="1">
                    <mxGeometry x="740" y="410" width="30" height="60" as="geometry"/>
                </mxCell>
                <mxCell id="OjxvisMtF8FCTCC9srCc-52" value="" style="html=1;labelBackgroundColor=#ffffff;startArrow=none;startFill=0;startSize=6;endArrow=classic;endFill=1;endSize=6;jettySize=auto;orthogonalLoop=1;strokeWidth=1;dashed=1;fontSize=14;rounded=0;entryX=0.384;entryY=0.926;entryDx=0;entryDy=0;entryPerimeter=0;" parent="1" target="OjxvisMtF8FCTCC9srCc-5" edge="1">
                    <mxGeometry width="60" height="60" relative="1" as="geometry">
                        <mxPoint x="330" y="380" as="sourcePoint"/>
                        <mxPoint x="390" y="320" as="targetPoint"/>
                    </mxGeometry>
                </mxCell>
                <mxCell id="OjxvisMtF8FCTCC9srCc-57" value="" style="html=1;labelBackgroundColor=#ffffff;startArrow=none;startFill=0;startSize=6;endArrow=classic;endFill=1;endSize=6;jettySize=auto;orthogonalLoop=1;strokeWidth=1;dashed=1;fontSize=14;rounded=0;entryX=0.5;entryY=1;entryDx=0;entryDy=0;" parent="1" target="OjxvisMtF8FCTCC9srCc-5" edge="1">
                    <mxGeometry width="60" height="60" relative="1" as="geometry">
                        <mxPoint x="320" y="490" as="sourcePoint"/>
                        <mxPoint x="380" y="430" as="targetPoint"/>
                    </mxGeometry>
                </mxCell>
                <mxCell id="OjxvisMtF8FCTCC9srCc-58" value="" style="html=1;labelBackgroundColor=#ffffff;startArrow=none;startFill=0;startSize=6;endArrow=classic;endFill=1;endSize=6;jettySize=auto;orthogonalLoop=1;strokeWidth=1;dashed=1;fontSize=14;rounded=0;exitX=1;exitY=0;exitDx=0;exitDy=0;entryX=0.5;entryY=1;entryDx=0;entryDy=0;" parent="1" source="OjxvisMtF8FCTCC9srCc-10" target="OjxvisMtF8FCTCC9srCc-5" edge="1">
                    <mxGeometry width="60" height="60" relative="1" as="geometry">
                        <mxPoint x="450" y="540" as="sourcePoint"/>
                        <mxPoint x="510" y="480" as="targetPoint"/>
                    </mxGeometry>
                </mxCell>
                <mxCell id="OjxvisMtF8FCTCC9srCc-60" value="" style="html=1;labelBackgroundColor=#ffffff;startArrow=none;startFill=0;startSize=6;endArrow=classic;endFill=1;endSize=6;jettySize=auto;orthogonalLoop=1;strokeWidth=1;dashed=1;fontSize=14;rounded=0;entryX=0.781;entryY=0.948;entryDx=0;entryDy=0;entryPerimeter=0;exitX=0;exitY=0;exitDx=0;exitDy=0;" parent="1" source="OjxvisMtF8FCTCC9srCc-20" target="OjxvisMtF8FCTCC9srCc-5" edge="1">
                    <mxGeometry width="60" height="60" relative="1" as="geometry">
                        <mxPoint x="460" y="270" as="sourcePoint"/>
                        <mxPoint x="520" y="210" as="targetPoint"/>
                    </mxGeometry>
                </mxCell>
                <mxCell id="OjxvisMtF8FCTCC9srCc-63" value="" style="html=1;labelBackgroundColor=#ffffff;startArrow=none;startFill=0;startSize=6;endArrow=classic;endFill=1;endSize=6;jettySize=auto;orthogonalLoop=1;strokeWidth=1;dashed=1;fontSize=14;rounded=0;entryX=0.666;entryY=0.926;entryDx=0;entryDy=0;entryPerimeter=0;exitX=0;exitY=0.5;exitDx=0;exitDy=0;" parent="1" source="OjxvisMtF8FCTCC9srCc-21" target="OjxvisMtF8FCTCC9srCc-5" edge="1">
                    <mxGeometry width="60" height="60" relative="1" as="geometry">
                        <mxPoint x="450" y="540" as="sourcePoint"/>
                        <mxPoint x="510" y="480" as="targetPoint"/>
                    </mxGeometry>
                </mxCell>
            </root>
        </mxGraphModel>
    </diagram>
</mxfile>